<svg width="42" height="43" viewBox="0 0 42 43" fill="none" xmlns="http://www.w3.org/2000/svg">
    <rect y="0.5" width="42" height="42" rx="8" fill="white"/>
    <path d="M34.0741 18.8887H33.0001V18.8334H21.0001V24.1667H28.5354C27.4361 27.2714 24.4821 29.5 21.0001 29.5C16.5821 29.5 13.0001 25.918 13.0001 21.5C13.0001 17.082 16.5821 13.5 21.0001 13.5C23.0394 13.5 24.8947 14.2694 26.3074 15.526L30.0787 11.7547C27.6974 9.53535 24.5121 8.16669 21.0001 8.16669C13.6367 8.16669 7.66675 14.1367 7.66675 21.5C7.66675 28.8634 13.6367 34.8334 21.0001 34.8334C28.3634 34.8334 34.3334 28.8634 34.3334 21.5C34.3334 20.606 34.2414 19.7334 34.0741 18.8887Z" fill="#FFC107"/>
    <path d="M9.2041 15.294L13.5848 18.5067C14.7701 15.572 17.6408 13.5 21.0001 13.5C23.0394 13.5 24.8948 14.2694 26.3074 15.526L30.0788 11.7547C27.6974 9.53535 24.5121 8.16669 21.0001 8.16669C15.8788 8.16669 11.4374 11.058 9.2041 15.294Z" fill="#FF3D00"/>
    <path d="M20.9999 34.8333C24.4439 34.8333 27.5732 33.5153 29.9392 31.372L25.8125 27.88C24.4739 28.894 22.8099 29.5 20.9999 29.5C17.5319 29.5 14.5872 27.2886 13.4779 24.2026L9.12988 27.5526C11.3365 31.8706 15.8179 34.8333 20.9999 34.8333Z" fill="#4CAF50"/>
    <path d="M34.074 18.8886H33V18.8333H21V24.1666H28.5353C28.0073 25.658 27.048 26.944 25.8107 27.8806L25.8127 27.8793L29.9393 31.3713C29.6473 31.6366 34.3333 28.1666 34.3333 21.5C34.3333 20.606 34.2413 19.7333 34.074 18.8886Z" fill="#1976D2"/>
</svg>