<svg xmlns="http://www.w3.org/2000/svg" width="102" height="42" viewBox="0 0 102 42" fill="none">
    <g clip-path="url(#clip0_54_168)">
        <rect width="101.666" height="42" transform="translate(0.333923)" fill="white"/>
        <path d="M0.499939 4.09375L10.2227 8.90545C11.3737 9.47509 12.7282 9.4574 13.864 8.85791L17.1607 7.11783C18.894 6.20295 21.0349 6.67871 22.2176 8.24159L28.0739 15.9806C28.2095 16.1599 28.36 16.3274 28.5238 16.4814L35.1554 22.7155C35.9438 23.4567 36.9989 23.8468 38.0799 23.7968L42.8089 23.5782C43.8898 23.5282 44.9449 23.9183 45.7334 24.6595L49.1385 27.8606C50.9503 29.5638 53.8606 29.2186 55.2237 27.1389L58.1095 22.7361C59.4726 20.6564 62.3829 20.3112 64.1947 22.0144L65.3607 23.1106C67.1725 24.8138 70.0828 24.4686 71.4459 22.3889L75.2228 16.6267C76.2334 15.0848 78.1669 14.4333 79.9045 15.0492L82.8429 16.0908C84.209 16.575 85.7302 16.2823 86.8191 15.3258L88.7763 13.6065C90.8893 11.7505 94.2074 12.5969 95.173 15.2384L100.073 28.642C100.762 30.5276 102.743 31.6101 104.702 31.1723L106.922 30.6762C108.429 30.3395 109.995 30.9 110.946 32.1163L117.5 40.5H0.499939V4.09375Z" fill="url(#paint0_linear_54_168)" fill-opacity="0.2"/>
        <path d="M117.5 40.5L110.946 32.1163C109.995 30.9 108.429 30.3395 106.922 30.6762L104.702 31.1723C102.743 31.6101 100.762 30.5276 100.073 28.642L95.173 15.2384C94.2074 12.5969 90.8893 11.7505 88.7763 13.6065L86.8191 15.3258C85.7302 16.2823 84.209 16.575 82.8429 16.0908L79.9045 15.0492C78.1669 14.4333 76.2334 15.0848 75.2228 16.6267L71.4459 22.3889C70.0828 24.4686 67.1725 24.8138 65.3607 23.1106L64.1947 22.0144C62.3829 20.3112 59.4726 20.6564 58.1095 22.7361L55.2237 27.1389C53.8606 29.2186 50.9503 29.5638 49.1385 27.8606L45.7334 24.6595C44.9449 23.9183 43.8898 23.5282 42.8089 23.5782L38.0799 23.7968C36.9989 23.8468 35.9438 23.4567 35.1554 22.7155L28.5238 16.4814C28.36 16.3274 28.2095 16.1599 28.0739 15.9806L22.2176 8.24159C21.0349 6.67871 18.894 6.20295 17.1607 7.11782L13.919 8.8289C12.7526 9.44453 11.3578 9.44566 10.1904 8.83192L0.999939 4" stroke="#F28C90" stroke-width="2" stroke-linecap="round"/>
    </g>
    <defs>
        <linearGradient id="paint0_linear_54_168" x1="60.7222" y1="5.53125" x2="60.7222" y2="40.5" gradientUnits="userSpaceOnUse">
            <stop stop-color="#D74B64"/>
            <stop offset="1" stop-color="#D74B4B" stop-opacity="0"/>
        </linearGradient>
        <clipPath id="clip0_54_168">
            <rect width="101.666" height="42" fill="white" transform="translate(0.333923)"/>
        </clipPath>
    </defs>
</svg>