<svg xmlns="http://www.w3.org/2000/svg" width="21" height="20" viewBox="0 0 21 20" fill="none">
    <path fill-rule="evenodd" clip-rule="evenodd" d="M18.0998 4.54913C18.3488 4.78818 18.3569 5.18383 18.1179 5.43283L13.9179 9.80783C13.8 9.9306 13.6372 10 13.467 10C13.2968 10 13.134 9.9306 13.0161 9.80783L10.467 7.15249L7.44618 10.2992L9.5984 12.3653L2.66699 14.375L4.39223 7.36737L6.54445 9.4335L10.0161 5.81717C10.134 5.6944 10.2968 5.625 10.467 5.625C10.6372 5.625 10.8 5.6944 10.9179 5.81717L13.467 8.47252L17.2161 4.56717C17.4552 4.31816 17.8508 4.31009 18.0998 4.54913Z" fill="#1C1C1C"/>
</svg>