<svg xmlns="http://www.w3.org/2000/svg" width="32" height="32" viewBox="0 0 32 32" fill="none">
    <path fill-rule="evenodd" clip-rule="evenodd" d="M14.0734 8.57318C15.3344 7.80894 16.9156 7.80894 18.1766 8.57317L22.3433 11.0984C23.527 11.8158 24.25 13.0994 24.25 14.4836V19.7273C24.25 21.9134 22.4778 23.6856 20.2917 23.6856H11.9583C9.77221 23.6856 8 21.9134 8 19.7273V14.4836C8 13.0994 8.723 11.8158 9.90672 11.0984L14.0734 8.57318ZM17.5287 9.64217C16.666 9.11928 15.584 9.11928 14.7213 9.64217L10.5546 12.1674C9.74469 12.6583 9.25 13.5365 9.25 14.4836V19.7273C9.25 21.223 10.4626 22.4356 11.9583 22.4356H13V19.7273C13 18.0014 14.3991 16.6023 16.125 16.6023C17.8509 16.6023 19.25 18.0014 19.25 19.7273V22.4356H20.2917C21.7874 22.4356 23 21.223 23 19.7273V14.4836C23 13.5365 22.5053 12.6583 21.6954 12.1674L17.5287 9.64217ZM18 22.4356V19.7273C18 18.6917 17.1605 17.8523 16.125 17.8523C15.0895 17.8523 14.25 18.6917 14.25 19.7273V22.4356H18Z" fill="#333333"/>
</svg>