<svg xmlns="http://www.w3.org/2000/svg" width="24" height="24" viewBox="0 0 24 24" fill="none">
    <path fill-rule="evenodd" clip-rule="evenodd" d="M14.9697 14.9697C15.2626 14.6768 15.7374 14.6768 16.0303 14.9697L19.5303 18.4697C19.8232 18.7626 19.8232 19.2374 19.5303 19.5303C19.2374 19.8232 18.7626 19.8232 18.4697 19.5303L14.9697 16.0303C14.6768 15.7374 14.6768 15.2626 14.9697 14.9697Z" fill="#1C1C1C" fill-opacity="0.8"/>
    <path fill-rule="evenodd" clip-rule="evenodd" d="M11 5.75C8.1005 5.75 5.75 8.1005 5.75 11C5.75 13.8995 8.1005 16.25 11 16.25C12.4525 16.25 13.766 15.6612 14.7172 14.7074C15.6652 13.7569 16.25 12.4475 16.25 11C16.25 8.1005 13.8995 5.75 11 5.75ZM4.25 11C4.25 7.27208 7.27208 4.25 11 4.25C14.7279 4.25 17.75 7.27208 17.75 11C17.75 12.8605 16.9963 14.5464 15.7793 15.7666C14.5581 16.991 12.867 17.75 11 17.75C7.27208 17.75 4.25 14.7279 4.25 11Z" fill="#1C1C1C" fill-opacity="0.8"/>
</svg>