<svg xmlns="http://www.w3.org/2000/svg" width="102" height="42" viewBox="0 0 102 42" fill="none">
    <g clip-path="url(#clip0_54_245)">
        <rect width="101.666" height="42" transform="translate(0.333923)" fill="white"/>
        <path d="M119.334 4.09375L109.611 8.90545C108.46 9.47509 107.106 9.4574 105.97 8.85791L102.673 7.11783C100.94 6.20295 98.799 6.67871 97.6163 8.24159L91.76 15.9806C91.6243 16.1599 91.4738 16.3274 91.31 16.4814L84.6785 22.7155C83.89 23.4567 82.8349 23.8468 81.754 23.7968L77.025 23.5782C75.944 23.5282 74.8889 23.9183 74.1005 24.6595L70.6953 27.8606C68.8836 29.5638 65.9733 29.2186 64.6102 27.1389L61.7244 22.7361C60.3612 20.6564 57.4509 20.3112 55.6392 22.0144L54.4731 23.1106C52.6613 24.8138 49.7511 24.4686 48.3879 22.3889L44.6111 16.6267C43.6005 15.0848 41.667 14.4333 39.9293 15.0492L36.9909 16.0908C35.6248 16.575 34.1037 16.2823 33.0147 15.3258L31.0576 13.6065C28.9446 11.7505 25.6265 12.5969 24.6609 15.2384L19.7609 28.642C19.0716 30.5276 17.0912 31.6101 15.1317 31.1723L12.9118 30.6762C11.4051 30.3395 9.83913 30.9 8.88824 32.1163L2.33392 40.5H119.334V4.09375Z" fill="url(#paint0_linear_54_245)" fill-opacity="0.2"/>
        <path d="M2.33392 40.5L8.88824 32.1163C9.83913 30.9 11.4051 30.3395 12.9118 30.6762L15.1317 31.1723C17.0912 31.6101 19.0716 30.5276 19.7609 28.642L24.6609 15.2384C25.6265 12.5969 28.9446 11.7505 31.0576 13.6065L33.0147 15.3258C34.1037 16.2823 35.6248 16.575 36.9909 16.0908L39.9293 15.0492C41.667 14.4333 43.6005 15.0848 44.6111 16.6267L48.3879 22.3889C49.7511 24.4686 52.6613 24.8138 54.4731 23.1106L55.6392 22.0144C57.4509 20.3112 60.3612 20.6564 61.7244 22.7361L64.6102 27.1389C65.9733 29.2186 68.8836 29.5638 70.6953 27.8606L74.1005 24.6595C74.8889 23.9183 75.944 23.5282 77.025 23.5782L81.754 23.7968C82.8349 23.8468 83.89 23.4567 84.6785 22.7155L91.31 16.4814C91.4738 16.3274 91.6243 16.1599 91.76 15.9806L97.6163 8.24159C98.799 6.67871 100.94 6.20295 102.673 7.11782L105.915 8.8289C107.081 9.44453 108.476 9.44566 109.643 8.83192L118.834 4" stroke="#7ECBB6" stroke-width="2" stroke-linecap="round"/>
    </g>
    <defs>
        <linearGradient id="paint0_linear_54_245" x1="59.1117" y1="5.53125" x2="59.1117" y2="40.5" gradientUnits="userSpaceOnUse">
            <stop stop-color="#48AC98"/>
            <stop offset="1" stop-color="#48AC98" stop-opacity="0"/>
        </linearGradient>
        <clipPath id="clip0_54_245">
            <rect width="101.666" height="42" fill="white" transform="translate(0.333923)"/>
        </clipPath>
    </defs>
</svg>