<svg xmlns="http://www.w3.org/2000/svg" width="21" height="20" viewBox="0 0 21 20" fill="none">
    <path fill-rule="evenodd" clip-rule="evenodd" d="M10.7356 7.00971L17.667 5L15.9417 12.0076L13.7895 9.9415L10.3178 13.5578C10.2 13.6806 10.0371 13.75 9.86696 13.75C9.69678 13.75 9.53395 13.6806 9.4161 13.5578L6.86696 10.9025L3.11783 14.8078C2.87878 15.0568 2.48314 15.0649 2.23413 14.8259C1.98512 14.5868 1.97705 14.1912 2.2161 13.9422L6.4161 9.56717C6.53395 9.4444 6.69678 9.375 6.86696 9.375C7.03715 9.375 7.19997 9.4444 7.31783 9.56717L9.86696 12.2225L12.8878 9.07584L10.7356 7.00971Z" fill="#1C1C1C"/>
</svg>