<svg xmlns="http://www.w3.org/2000/svg" width="20" height="20" viewBox="0 0 20 20" fill="none">
    <path fill-rule="evenodd" clip-rule="evenodd" d="M9.99984 13.3333C8.15889 13.3333 6.6665 11.841 6.6665 10C6.6665 8.15906 8.15889 6.66668 9.99984 6.66668C11.8408 6.66668 13.3332 8.15906 13.3332 10C13.3332 11.841 11.8408 13.3333 9.99984 13.3333ZM11.6665 10C11.6665 10.9205 10.9203 11.6667 9.99984 11.6667C9.07936 11.6667 8.33317 10.9205 8.33317 10C8.33317 9.07954 9.07936 8.33335 9.99984 8.33335C10.9203 8.33335 11.6665 9.07954 11.6665 10Z" fill="#F6F6F9"/>
    <path fill-rule="evenodd" clip-rule="evenodd" d="M18.4967 7.51619L16.9616 7.20919C16.6969 6.54754 16.3392 5.92618 15.8983 5.36472L16.3993 3.88351C16.5266 3.50722 16.3706 3.0934 16.0266 2.89478L13.1399 1.22811C12.7959 1.0295 12.3595 1.10131 12.0973 1.39969L11.065 2.57424C10.3583 2.47308 9.64136 2.47404 8.93598 2.57557L7.90258 1.39969C7.64036 1.10131 7.20398 1.0295 6.85996 1.22811L3.97321 2.89478C3.62919 3.0934 3.47319 3.50722 3.60049 3.88351L4.10192 5.36576C3.88349 5.64439 3.68395 5.9396 3.50473 6.25001C3.32551 6.56043 3.16962 6.88084 3.03754 7.20932L1.50315 7.5162C1.11363 7.5941 0.833252 7.93611 0.833252 8.33335V11.6667C0.833252 12.0639 1.11363 12.4059 1.50315 12.4838L3.03819 12.7908C3.30296 13.4525 3.66059 14.0738 4.10156 14.6353L3.60049 16.1165C3.4732 16.4928 3.62919 16.9066 3.97321 17.1052L6.85996 18.7719C7.20397 18.9705 7.64036 18.8987 7.90259 18.6003L8.93481 17.4258C9.64154 17.5269 10.3585 17.526 11.0639 17.4245L12.0972 18.6003C12.3595 18.8987 12.7959 18.9705 13.1399 18.7719L16.0266 17.1052C16.3706 16.9066 16.5266 16.4928 16.3993 16.1165L15.8979 14.6343C16.1163 14.3556 16.3159 14.0604 16.4951 13.75C16.6743 13.4396 16.8302 13.1192 16.9623 12.7907L18.4967 12.4838C18.8862 12.4059 19.1666 12.0639 19.1666 11.6667V8.33335C19.1666 7.93611 18.8862 7.5941 18.4967 7.51619ZM16.1751 8.75156L17.4999 9.01652V10.9835L16.1766 11.2482C15.8817 11.3072 15.6414 11.5205 15.5479 11.8064C15.4227 12.1895 15.257 12.5611 15.0517 12.9167C14.8464 13.2723 14.6075 13.6015 14.3383 13.9015C14.1374 14.1254 14.0728 14.4402 14.1692 14.7251L14.6017 16.0035L12.8982 16.987L12.0063 15.9721C11.8075 15.7459 11.5022 15.6446 11.2076 15.707C10.4112 15.8759 9.58798 15.8775 8.79097 15.7085C8.49637 15.6461 8.19098 15.7474 7.99218 15.9736L7.10165 16.987L5.39819 16.0035L5.83048 14.7256C5.92698 14.4403 5.86206 14.1252 5.66066 13.9012C5.11582 13.2955 4.70565 12.5817 4.45368 11.8077C4.36046 11.5213 4.12 11.3075 3.8247 11.2485L2.49992 10.9835V9.01652L3.82323 8.75185C4.11818 8.69286 4.35844 8.47951 4.45189 8.19361C4.57713 7.81048 4.7428 7.43894 4.9481 7.08335C5.1534 6.72776 5.39233 6.3985 5.66152 6.09848C5.86239 5.8746 5.92702 5.55985 5.83064 5.27492L5.39819 3.99657L7.10165 3.01307L7.9935 4.02789C8.1923 4.2541 8.49768 4.35545 8.79228 4.29299C9.58863 4.12417 10.4119 4.12251 11.2089 4.29149C11.5035 4.35395 11.8089 4.2526 12.0077 4.02639L12.8982 3.01307L14.6017 3.99657L14.1694 5.27445C14.0729 5.55972 14.1378 5.87487 14.3392 6.09877C14.884 6.70451 15.2942 7.41828 15.5462 8.19235C15.6394 8.47871 15.8798 8.6925 16.1751 8.75156Z" fill="#F6F6F9"/>
</svg>