<svg xmlns="http://www.w3.org/2000/svg" width="20" height="20" viewBox="0 0 20 20" fill="none">
  <path fill-rule="evenodd" clip-rule="evenodd" d="M10.5686 7.00971L17.5 5L15.7748 12.0076L13.6225 9.9415L10.1509 13.5578C10.033 13.6806 9.87018 13.75 9.7 13.75C9.52982 13.75 9.36699 13.6806 9.24913 13.5578L6.7 10.9025L2.95087 14.8078C2.71182 15.0568 2.31618 15.0649 2.06717 14.8259C1.81816 14.5868 1.81009 14.1912 2.04913 13.9422L6.24913 9.56717C6.36699 9.4444 6.52982 9.375 6.7 9.375C6.87018 9.375 7.03301 9.4444 7.15087 9.56717L9.7 12.2225L12.7208 9.07584L10.5686 7.00971Z" fill="#39B54A"/>
</svg>