<svg width="48.000000" height="48.000000" viewBox="0 0 48 48" fill="none" xmlns="http://www.w3.org/2000/svg" xmlns:xlink="http://www.w3.org/1999/xlink">
	<desc>
			Created with Pixso.
	</desc>
	<defs>
		<clipPath id="clip2_14209">
			<rect id="sensors" width="26.000000" height="26.000000" transform="translate(11.000000 11.000000)" fill="white" fill-opacity="0"/>
		</clipPath>
	</defs>
	<rect id="Rectangle 4436" rx="12.000000" width="48.000000" height="48.000000" fill="#39B54A" fill-opacity="1.000000"/>
	<rect id="sensors" width="26.000000" height="26.000000" transform="translate(11.000000 11.000000)" fill="#FFFFFF" fill-opacity="0"/>
	<g clip-path="url(#clip2_14209)">
		<path id="Vector" d="M19.4 28.59C18.22 27.42 17.49 25.79 17.49 24C17.49 22.2 18.22 20.57 19.4 19.4L20.94 20.94C20.15 21.72 19.66 22.8 19.66 24C19.66 25.19 20.15 26.27 20.93 27.06L19.4 28.59ZM28.59 28.59C29.77 27.42 30.49 25.79 30.49 24C30.49 22.2 29.77 20.57 28.59 19.4L27.05 20.94C27.84 21.72 28.33 22.8 28.33 24C28.33 25.19 27.84 26.27 27.06 27.06L28.59 28.59ZM23.99 21.83C22.8 21.83 21.83 22.8 21.83 24C21.83 25.19 22.8 26.16 23.99 26.16C25.19 26.16 26.16 25.19 26.16 24C26.16 22.8 25.19 21.83 23.99 21.83ZM32.66 24C32.66 26.39 31.69 28.56 30.12 30.12L31.65 31.65C33.61 29.69 34.83 26.99 34.83 24C34.83 21.01 33.61 18.3 31.65 16.34L30.12 17.87C31.69 19.43 32.66 21.6 32.66 24ZM17.87 17.87L16.34 16.34C14.37 18.3 13.16 21.01 13.16 24C13.16 26.99 14.37 29.69 16.34 31.65L17.87 30.12C16.3 28.56 15.33 26.39 15.33 24C15.33 21.6 16.3 19.43 17.87 17.87Z" fill="#FFFFFF" fill-opacity="1.000000" fill-rule="evenodd"/>
	</g>
</svg>
