<svg width="48" height="48" viewBox="0 0 48 48" fill="none" xmlns="http://www.w3.org/2000/svg">
<rect width="48" height="48" rx="12" fill="#707070"/>
<path d="M30.5 17.5V15.3333L28.3333 13.1666H22.9167L20.75 15.3333V17.5H16.4167V29.4166C16.4167 29.4166 17.5 31.5833 18.5833 31.5833H32.6667C32.6667 31.5833 34.8333 30.5216 34.8333 29.4166V17.5H30.5ZM15.3333 20.75H13.1667V32.6666C13.1667 33.8691 14.1308 34.8333 15.3333 34.8333H30.5C31.7025 34.8333 32.6667 33.8691 32.6667 32.6666H16.5333C15.8706 32.6666 15.3333 32.1294 15.3333 31.4666V20.75ZM22.9167 16.4166C22.9167 15.8208 23.4908 15.3333 24 15.3333H27.25C27.7483 15.3333 28.3333 15.9183 28.3333 16.4166V17.5H22.9167V16.4166ZM16.4167 17.5H25.625H34.8333V29.4166C34.8333 30.6083 33.8583 31.5833 32.6667 31.5833H18.5833C17.3917 31.5833 16.4167 30.6083 16.4167 29.4166V17.5Z" fill="white"/>
<path d="M20.75 17.5H16.4167V29.4166C16.4167 29.4166 17.5 31.5833 18.5833 31.5833H32.6667C32.6667 31.5833 34.8333 30.5216 34.8333 29.4166V17.5H30.5H28.3333H25.625H22.9167H20.75Z" fill="white"/>
</svg>
