<svg width="48.000000" height="48.000000" viewBox="0 0 48 48" fill="none" xmlns="http://www.w3.org/2000/svg" xmlns:xlink="http://www.w3.org/1999/xlink">
	<desc>
			Created with Pixso.
	</desc>
	<defs>
		<clipPath id="clip2_14190">
			<rect id="add-user" width="26.000000" height="26.000000" transform="translate(11.000000 11.000000)" fill="white" fill-opacity="0"/>
		</clipPath>
	</defs>
	<rect id="Rectangle 4436" rx="12.000000" width="48.000000" height="48.000000" fill="#22A053" fill-opacity="1.000000"/>
	<g clip-path="url(#clip2_14190)">
		<path id="Vector" d="M14.52 19.66C14.52 16.82 16.82 14.52 19.66 14.52C22.5 14.52 24.81 16.82 24.81 19.66C24.81 21.34 24 22.83 22.76 23.77C25.86 25 28.06 28.04 28.06 31.58L28.06 32.66C28.06 33.11 27.69 33.47 27.25 33.47L12.08 33.47C11.63 33.47 11.27 33.11 11.27 32.66L11.27 31.58C11.27 28.04 13.46 25 16.57 23.77C15.32 22.83 14.52 21.34 14.52 19.66ZM33.47 18.58C33.47 18.13 33.11 17.77 32.66 17.77C32.21 17.77 31.85 18.13 31.85 18.58L31.85 21.02L29.41 21.02C28.96 21.02 28.6 21.38 28.6 21.83C28.6 22.28 28.96 22.64 29.41 22.64L31.85 22.64L31.85 25.08C31.85 25.53 32.21 25.89 32.66 25.89C33.11 25.89 33.47 25.53 33.47 25.08L33.47 22.64L35.91 22.64C36.36 22.64 36.72 22.28 36.72 21.83C36.72 21.38 36.36 21.02 35.91 21.02L33.47 21.02L33.47 18.58Z" fill="#FFFFFF" fill-opacity="1.000000" fill-rule="evenodd"/>
	</g>
</svg>
