<svg width="48" height="48" viewBox="0 0 48 48" fill="none" xmlns="http://www.w3.org/2000/svg">
<rect width="48" height="48" rx="12" fill="#22A053"/>
<path d="M18.1589 18.3897C18.1798 18.2657 18.2099 17.8479 17.7188 17.675L17.7082 17.6711V18.9762C17.9669 18.8622 18.1201 18.6194 18.1589 18.3897Z" fill="white"/>
<path d="M17.415 21.6302C19.7576 21.6302 21.6634 19.7318 21.6634 17.3984C21.6634 15.065 19.7576 13.1666 17.415 13.1666C15.0725 13.1666 13.1667 15.065 13.1667 17.3984C13.1667 19.7318 15.0725 21.6302 17.415 21.6302ZM16.0752 18.9057C16.0981 18.8708 16.1277 18.8407 16.1623 18.8172C16.1968 18.7937 16.2357 18.7772 16.2767 18.7687C16.3176 18.7602 16.3599 18.7598 16.401 18.7675C16.4421 18.7752 16.4813 18.791 16.5163 18.8138C16.7387 18.9587 16.8736 19.0139 17.0713 19.0334V17.4215C16.8288 17.3126 16.6499 17.2087 16.5048 17.0954C16.216 16.8698 16.0844 16.477 16.1613 16.0704C16.2454 15.6257 16.5556 15.2722 16.971 15.1475C17.0049 15.1373 17.0382 15.1286 17.0713 15.1205V14.8593C17.0713 14.684 17.2139 14.542 17.3899 14.542C17.5659 14.542 17.7085 14.684 17.7085 14.8593V15.0837C18.0697 15.1361 18.3236 15.31 18.4442 15.4479C18.4989 15.5113 18.5263 15.5937 18.5203 15.6772C18.5144 15.7606 18.4756 15.8384 18.4124 15.8935C18.3493 15.9486 18.2668 15.9766 18.183 15.9715C18.0991 15.9664 18.0207 15.9285 17.9648 15.8661C17.9589 15.8601 17.8744 15.7768 17.7085 15.7318V16.9958C17.7833 17.0237 17.8582 17.0507 17.9315 17.0765C18.5597 17.2977 18.8958 17.8545 18.7877 18.495C18.703 18.9962 18.3142 19.5045 17.7085 19.6416V19.9375C17.7085 20.1128 17.5659 20.2548 17.3899 20.2548C17.2139 20.2548 17.0713 20.1128 17.0713 19.9375V19.6702C16.7653 19.649 16.5204 19.575 16.1675 19.345C16.0967 19.2989 16.0473 19.2268 16.03 19.1444C16.0127 19.062 16.029 18.9761 16.0752 18.9057Z" fill="white"/>
<path d="M17.0713 15.7891C16.9032 15.8754 16.8147 16.0448 16.7876 16.1879C16.7554 16.3581 16.7987 16.5183 16.8981 16.5959C16.9485 16.6353 17.0072 16.6734 17.0713 16.7104V15.7891ZM26.1242 25.9466H21.8759C21.5239 25.9466 21.2386 26.2308 21.2386 26.5813V34.1985C21.2386 34.5491 21.5239 34.8333 21.8759 34.8333H26.1242C26.4761 34.8333 26.7615 34.5491 26.7615 34.1985V26.5813C26.7615 26.2308 26.4761 25.9466 26.1242 25.9466ZM34.1961 23.4075H29.9477C29.5958 23.4075 29.3105 23.6917 29.3105 24.0423V34.1985C29.3105 34.5491 29.5958 34.8333 29.9477 34.8333H34.1961C34.548 34.8333 34.8333 34.5491 34.8333 34.1985V24.0423C34.8333 23.6917 34.548 23.4075 34.1961 23.4075ZM18.0523 28.4856H13.804C13.4521 28.4856 13.1667 28.7698 13.1667 29.1204V34.1985C13.1667 34.5491 13.4521 34.8333 13.804 34.8333H18.0523C18.4043 34.8333 18.6896 34.5491 18.6896 34.1985V29.1204C18.6896 28.7698 18.4043 28.4856 18.0523 28.4856ZM34.1961 13.1666H30.7974C30.4454 13.1666 30.1601 13.4508 30.1601 13.8014C30.1601 14.152 30.4454 14.4362 30.7974 14.4362H32.5823C32.2995 14.7085 32.008 14.993 31.7097 15.2842C27.8808 19.0221 22.0946 24.6709 13.7774 25.0161C13.4258 25.0307 13.1526 25.3265 13.1673 25.6768C13.1816 26.018 13.4638 26.2851 13.8036 26.2851C13.8125 26.2851 13.8215 26.2849 13.8305 26.2846C22.6369 25.919 28.6337 20.0648 32.6019 16.1909C32.9306 15.8701 33.2509 15.5574 33.5589 15.2617V17.1868C33.5589 17.5374 33.8442 17.8216 34.1961 17.8216C34.548 17.8216 34.8334 17.5374 34.8334 17.1868V13.8014C34.8333 13.4508 34.548 13.1666 34.1961 13.1666Z" fill="white"/>
</svg>
