<svg width="48" height="48" viewBox="0 0 48 48" fill="none" xmlns="http://www.w3.org/2000/svg">
<rect width="48" height="48" rx="12" fill="#39B54A"/>
<path fill-rule="evenodd" clip-rule="evenodd" d="M24 13.4375C24.4488 13.4375 24.8125 13.8013 24.8125 14.25V16.2151C26.4151 16.4297 28.0473 17.1482 29.0745 18.1755C29.3918 18.4928 29.3918 19.0072 29.0745 19.3245C28.7572 19.6418 28.2428 19.6418 27.9255 19.3245C27.0678 18.4668 25.468 17.8154 23.9782 17.7753C23.1011 17.7517 22.3678 17.943 21.8736 18.3174C21.4134 18.666 21.0625 19.2458 21.0625 20.25C21.0625 20.6821 21.1597 20.9922 21.3022 21.231C21.4475 21.4745 21.6672 21.6887 21.9753 21.8848C22.624 22.2976 23.5231 22.5505 24.5888 22.8411C24.611 22.8471 24.6332 22.8532 24.6556 22.8593C25.6372 23.1269 26.769 23.4353 27.6472 23.9942C28.1125 24.2903 28.5374 24.6737 28.8432 25.1861C29.1518 25.7031 29.3125 26.307 29.3125 26.9999C29.3125 28.55 28.6328 29.715 27.5802 30.4522C26.7841 31.0098 25.8089 31.3013 24.8125 31.3806V33.7499C24.8125 34.1986 24.4488 34.5624 24 34.5624C23.5513 34.5624 23.1875 34.1986 23.1875 33.7499V31.3297C21.5224 31.0979 19.8477 30.3176 18.85 28.9874C18.5808 28.6285 18.6536 28.1192 19.0125 27.8499C19.3715 27.5807 19.8808 27.6535 20.15 28.0124C20.9288 29.0507 22.4617 29.7181 24.0292 29.7744C25.0578 29.8114 25.994 29.5792 26.648 29.1212C27.2693 28.686 27.6875 28.0164 27.6875 26.9999C27.6875 26.5679 27.5904 26.2577 27.4479 26.0189C27.3025 25.7754 27.0829 25.5612 26.7747 25.3651C26.1261 24.9523 25.2269 24.6995 24.1612 24.4088C24.1391 24.4028 24.1168 24.3967 24.0945 24.3906C23.1128 24.1231 21.9811 23.8146 21.1029 23.2558C20.6376 22.9597 20.2127 22.5762 19.9069 22.0639C19.5982 21.5468 19.4375 20.9429 19.4375 20.25C19.4375 18.8092 19.9724 17.7189 20.8925 17.022C21.5556 16.5197 22.362 16.2647 23.1875 16.1806V14.25C23.1875 13.8013 23.5513 13.4375 24 13.4375Z" fill="white"/>
</svg>
