<svg width="48" height="48" viewBox="0 0 48 48" fill="none" xmlns="http://www.w3.org/2000/svg">
<rect width="48" height="48" rx="12" fill="#EB1E23"/>
<path d="M14.4765 23.4957V25.3352H8V23.4957H14.4765Z" fill="white"/>
<path fill-rule="evenodd" clip-rule="evenodd" d="M24.6648 13C25.1154 13 25.4808 13.3638 25.4808 13.8125V15.7776C27.0902 15.9922 28.7294 16.7107 29.761 17.738C30.0797 18.0553 30.0797 18.5697 29.761 18.887C29.4423 19.2043 28.9257 19.2043 28.607 18.887C27.7457 18.0293 26.139 17.3779 24.6428 17.3378C23.762 17.3142 23.0256 17.5055 22.5293 17.8799C22.067 18.2285 21.7147 18.8083 21.7147 19.8125C21.7147 20.2446 21.8123 20.5547 21.9554 20.7935C22.1014 21.037 22.322 21.2512 22.6314 21.4473C23.2829 21.8601 24.1858 22.113 25.2561 22.4036C25.2784 22.4096 25.3007 22.4157 25.3231 22.4218C26.309 22.6894 27.4456 22.9978 28.3275 23.5567C28.7948 23.8528 29.2215 24.2362 29.5287 24.7486C29.8386 25.2656 30 25.8695 30 26.5624C30 28.1125 29.3174 29.2775 28.2603 30.0147C27.4607 30.5723 26.4814 30.8638 25.4808 30.9431V33.3124C25.4808 33.7611 25.1154 34.1249 24.6648 34.1249C24.2141 34.1249 23.8488 33.7611 23.8488 33.3124V30.8922C22.1765 30.6604 20.4946 29.8801 19.4928 28.5499C19.2224 28.191 19.2954 27.6817 19.656 27.4124C20.0165 27.1432 20.5279 27.216 20.7983 27.5749C21.5804 28.6132 23.1199 29.2806 24.6941 29.3369C25.7271 29.3739 26.6673 29.1417 27.3241 28.6837C27.9481 28.2485 28.368 27.5789 28.368 26.5624C28.368 26.1304 28.2705 25.8202 28.1274 25.5814C27.9814 25.3379 27.7608 25.1237 27.4514 24.9276C26.7999 24.5148 25.8969 24.262 24.8267 23.9713C24.8044 23.9653 24.7821 23.9592 24.7596 23.9531C23.7738 23.6856 22.6372 23.3771 21.7552 22.8183C21.2879 22.5222 20.8612 22.1387 20.5541 21.6264C20.2441 21.1093 20.0828 20.5054 20.0828 19.8125C20.0828 18.3717 20.6199 17.2814 21.5439 16.5845C22.2099 16.0822 23.0197 15.8272 23.8488 15.7431V13.8125C23.8488 13.3638 24.2141 13 24.6648 13Z" fill="white"/>
</svg>
