<svg width="48.000000" height="48.000000" viewBox="0 0 48 48" fill="none" xmlns="http://www.w3.org/2000/svg" xmlns:xlink="http://www.w3.org/1999/xlink">
	<desc>
			Created with Pixso.
	</desc>
	<defs>
		<clipPath id="clip2_14171">
			<rect id="Style=Filled" width="26.000000" height="26.000000" transform="translate(11.000000 11.000000)" fill="white" fill-opacity="0"/>
		</clipPath>
	</defs>
	<rect id="Rectangle 4436" rx="12.000000" width="48.000000" height="48.000000" fill="#F3AC0E" fill-opacity="1.000000"/>
	<rect id="Style=Filled" width="26.000000" height="26.000000" transform="translate(11.000000 11.000000)" fill="#FFFFFF" fill-opacity="0"/>
	<g clip-path="url(#clip2_14171)">
		<path id="Vector" d="M30.5 15.33L30.5 17.5L34.83 17.5L34.83 29.41C34.83 30.6 33.85 31.58 32.66 31.58L18.58 31.58C17.39 31.58 16.41 30.6 16.41 29.41L16.41 17.5L20.75 17.5L20.75 15.33L22.91 13.16L28.33 13.16L30.5 15.33ZM22.91 17.5L28.33 17.5L28.33 16.41C28.33 15.91 27.74 15.33 27.25 15.33L24 15.33C23.49 15.33 22.91 15.82 22.91 16.41L22.91 17.5ZM13.16 20.75L15.33 20.75L15.33 31.46C15.33 32.12 15.87 32.66 16.53 32.66L32.66 32.66C32.66 33.86 31.7 34.83 30.5 34.83L15.33 34.83C14.13 34.83 13.16 33.86 13.16 32.66L13.16 20.75Z" fill="#FFFFFF" fill-opacity="1.000000" fill-rule="evenodd"/>
	</g>
</svg>
    