<svg width="48.000000" height="48.000000" viewBox="0 0 48 48" fill="none" xmlns="http://www.w3.org/2000/svg" xmlns:xlink="http://www.w3.org/1999/xlink">
	<desc>
			Created with Pixso.
	</desc>
	<defs>
		<clipPath id="clip2_14316">
			<rect id="moogold" width="36.000000" height="26.000000" transform="translate(6.000000 11.000000)" fill="white" fill-opacity="0"/>
		</clipPath>
	</defs>
	<rect id="Rectangle 4436" rx="12.000000" width="48.000000" height="48.000000" fill="#212120" fill-opacity="1.000000"/>
	<rect id="moogold" width="36.000000" height="26.000000" transform="translate(6.000000 11.000000)" fill="#FFFFFF" fill-opacity="0"/>
	<g clip-path="url(#clip2_14316)">
		<path id="XMLID_12_" d="M26.6 27.55C26.6 27.55 27.31 26.4 28.13 25.94C28.93 25.49 30.11 25.32 31.08 25.94C32.04 26.56 32.07 27.42 32.07 27.42C32.07 27.42 33.25 26.78 34.78 27.41L34.78 27.01C34.78 27.01 34.75 26.74 34.89 26.43C35.03 26.12 35.41 25.74 35.68 25.66C35.95 25.58 36.33 25.59 36.59 25.78C36.85 25.98 37.04 26.2 37.11 26.36C37.19 26.51 37.24 26.79 37.24 26.79L37.24 27.58L37.46 27.58C37.46 27.58 38 27.07 39 27.09C39 27.09 39.08 25.84 39.84 25.71C40.6 25.58 41 25.84 41.26 26.19C41.52 26.54 41.47 26.79 41.47 26.79L41.47 30.27C41.47 30.27 41.39 30.91 41.16 31.26C40.93 31.62 40.51 32.33 39.96 32.47C39.4 32.61 38.67 32.92 37.71 32.38L37.45 32.38C37.45 32.38 37.17 32.74 36.42 32.69C35.67 32.64 35.42 32.13 35.42 32.13L35.21 32.13C35.21 32.13 34.55 32.57 33.78 32.69C33 32.81 32.05 32.5 31.61 32.06L31.48 32.06C31.48 32.06 30.81 32.52 30.28 32.67C29.75 32.82 28.86 32.81 27.96 32.29C27.05 31.78 26.65 30.81 26.65 30.81L26.6 27.55Z" fill="#F9D293" fill-opacity="1.000000" fill-rule="nonzero"/>
		<path id="XMLID_11_" d="M30 30.19C30 30.19 29.26 30.29 29.05 29.82C28.85 29.36 29.02 28.91 29.11 28.8C29.2 28.68 29.33 28.53 29.57 28.52C29.8 28.52 30.67 28.52 30.67 28.52C30.67 28.52 31.08 28.53 31.22 28.63C31.37 28.73 31.55 28.8 31.63 29.26C31.63 29.26 31.49 28.9 31.57 28.52C31.65 28.14 32.32 27.76 32.8 27.64C33.27 27.52 34.09 27.57 34.62 27.84C35.14 28.12 35.21 28.45 35.21 28.45L35.21 27.22C35.21 27.22 35.22 26.69 35.33 26.51C35.43 26.32 35.68 26.07 36.02 26.07C36.36 26.07 36.56 26.25 36.66 26.42C36.76 26.59 36.79 26.86 36.79 26.86L36.79 29.55C36.79 29.55 37.03 28.09 37.95 27.75C38.88 27.42 39.46 27.68 39.46 27.68L39.46 26.97C39.46 26.97 39.47 26.37 39.84 26.22C40.2 26.06 40.68 26.06 40.87 26.41C41.07 26.76 41.04 27.26 41.04 27.26L41.04 30.25C41.04 30.25 40.91 30.99 40.66 31.29C40.42 31.59 40.01 32.04 39.29 32.2C38.57 32.35 37.75 31.99 37.5 31.65C37.5 31.65 36.3 33.25 35.33 31.16C35.33 31.16 35.23 31.59 34.8 31.86C34.38 32.12 32.44 32.91 31.55 31.23C31.55 31.23 31.07 32.23 29.61 32.27C28.15 32.32 27.04 31.13 26.73 29.7C26.42 28.27 26.73 28.51 26.73 28.51C26.73 28.51 27.04 27.6 27.5 27C27.97 26.41 28.75 26.01 29.6 26.03C30.45 26.05 31.16 26.47 31.4 26.78C31.65 27.1 31.73 27.47 31.53 27.79C31.32 28.11 30.95 28.39 30.52 28.17C30.1 27.95 30.26 27.76 29.53 27.7C28.81 27.64 28.32 28.62 28.36 29.14C28.4 29.66 28.48 30.06 29.08 30.47C29.34 30.66 30 30.51 30 30.51L30 30.19Z" fill="#F2AE1D" fill-opacity="1.000000" fill-rule="nonzero"/>
		<path id="XMLID_1_" d="M6.8 22.72L6.8 18.43C6.8 18.43 6.84 17.6 7.38 17.22C7.93 16.84 8.33 17.11 8.45 17.16C8.57 17.22 8.81 17.22 9.04 17.12C9.27 17.02 9.87 16.89 10.4 17.12C10.93 17.35 11.03 17.57 11.32 17.39C11.61 17.22 12.68 16.8 13.44 17.13C14.2 17.47 14.8 18.22 15 18.88L15.26 18.88L15.56 18.59L15.56 18.32C15.56 18.32 14.99 17.77 14.95 16.77C14.91 15.77 16.15 14.93 16.46 14.82C16.76 14.71 16.55 14.8 16.46 15.14C16.36 15.47 16.24 16.1 16.44 16.45C16.64 16.8 17.04 16.92 17.31 16.9C17.31 16.9 17.47 16.79 17.55 16.57C17.63 16.35 17.88 16.29 18.04 16.26C18.2 16.23 21.77 15.9 21.8 15.9C21.84 15.9 21.98 15.82 22.15 16.05C22.32 16.28 22.4 16.35 22.4 16.35C22.4 16.35 22.95 16.51 23.22 16.01C23.48 15.5 23.27 14.56 22.82 14.14C22.36 13.72 24.13 14.37 24.68 15.23C25.23 16.08 24.59 17.23 24.59 17.38C24.59 17.52 24.55 17.59 24.9 17.9C25.26 18.2 26.04 19.24 26.12 20.5C26.2 21.75 25.63 23.39 24.74 23.98L24.74 24.4C24.74 24.4 26.24 25.97 26.58 27.46L26.71 27.38C26.71 27.38 26.91 27.91 26.88 28.17C26.88 28.17 26.75 28.88 26.79 29.36C26.83 29.83 26.95 30.34 26.95 30.34L26.85 31.16C26.85 31.16 26.71 31.12 26.66 31.26C26.61 31.41 26.18 32.59 25.35 33.06C24.52 33.52 22.59 34.4 19.42 34.4C16.24 34.4 13.75 32.63 13.24 30.84C12.73 29.05 13.65 26.6 14.6 25.43C15.54 24.26 16.17 24.07 16.17 24.07L16.15 23.81C16.15 23.81 15.6 23.5 15.36 23.2L15.12 23.22C15.12 23.22 14.87 23.97 13.92 24.01C12.97 24.06 12.76 22.84 12.76 22.84L12.73 19.76C12.73 19.76 12.57 19.48 12.23 19.76L12.23 22.99C12.23 22.99 11.96 23.94 10.97 24.03C9.99 24.11 9.76 22.73 9.76 22.73L9.76 19.78C9.76 19.78 9.6 19.43 9.21 19.78L9.21 22.9C9.21 22.9 9.03 24.01 7.95 24.01C6.87 24.01 6.8 22.72 6.8 22.72Z" fill="#CCCCCC" fill-opacity="1.000000" fill-rule="nonzero"/>
		<path id="XMLID_3_" d="M7.22 18.23C7.22 18.23 7.64 16.96 8.6 17.74C8.6 17.74 9.8 16.91 11.04 18.02C11.04 18.02 12 17.2 13.01 17.44C14.01 17.68 14.73 18.75 14.77 19.48C14.81 20.22 14.82 22.33 14.82 22.33C14.82 22.33 14.91 23.38 14.23 23.52C13.56 23.65 13.18 23.15 13.18 22.73C13.18 22.31 13.18 19.73 13.18 19.73C13.18 19.73 13.04 19.21 12.59 19.2C12.14 19.19 11.84 19.52 11.84 19.71C11.84 19.9 11.84 22.62 11.84 22.62C11.84 22.62 11.85 23.56 11.02 23.54C10.19 23.52 10.19 22.53 10.19 22.53L10.19 19.66C10.19 19.66 9.96 19.15 9.5 19.17C8.99 19.2 8.88 19.59 8.88 19.67C8.88 19.75 8.88 22.57 8.88 22.57C8.88 22.57 8.82 23.49 8.19 23.55C7.56 23.6 7.21 23.2 7.21 22.79C7.22 22.38 7.22 18.23 7.22 18.23Z" fill="#B3B4B5" fill-opacity="1.000000" fill-rule="nonzero"/>
		<path id="XMLID_23_" d="M8.35 22.68C8.35 22.78 8.32 22.86 8.26 22.93C8.19 23 8.11 23.04 8.02 23.04C7.93 23.04 7.85 23 7.78 22.93C7.72 22.86 7.68 22.78 7.68 22.68L7.68 18.32C7.68 18.22 7.72 18.13 7.78 18.06C7.85 17.99 7.92 17.96 8.02 17.96C8.11 17.96 8.19 17.99 8.26 18.06C8.32 18.13 8.35 18.22 8.35 18.32L8.35 18.42C8.69 18.11 9.08 17.96 9.53 17.96C10.04 17.96 10.47 18.15 10.83 18.54C10.91 18.62 10.98 18.71 11.04 18.8C11.1 18.71 11.17 18.63 11.24 18.54C11.6 18.15 12.04 17.96 12.55 17.96C13.06 17.96 13.49 18.15 13.85 18.54C14.21 18.93 14.39 19.4 14.39 19.95L14.39 22.68C14.39 22.78 14.36 22.86 14.29 22.94C14.23 23.01 14.15 23.04 14.05 23.04C13.96 23.04 13.88 23.01 13.82 22.94C13.75 22.87 13.72 22.78 13.72 22.68L13.72 19.95C13.72 19.6 13.6 19.3 13.38 19.05C13.15 18.81 12.87 18.68 12.54 18.68C12.22 18.68 11.94 18.81 11.71 19.05C11.49 19.3 11.37 19.6 11.37 19.95L11.37 22.68C11.37 22.78 11.34 22.86 11.27 22.93C11.21 23 11.13 23.04 11.04 23.04C10.94 23.04 10.86 23 10.8 22.93C10.73 22.86 10.7 22.78 10.7 22.68L10.7 19.95C10.7 19.6 10.58 19.3 10.36 19.05C10.13 18.81 9.85 18.68 9.53 18.68C9.2 18.68 8.93 18.81 8.7 19.05C8.47 19.3 8.35 19.6 8.35 19.95L8.35 22.68L8.35 22.68Z" fill="#000000" fill-opacity="1.000000" fill-rule="nonzero"/>
		<path id="XMLID_23_" d="M8.26 22.93C8.19 23 8.11 23.04 8.02 23.04C7.93 23.04 7.85 23 7.78 22.93C7.72 22.86 7.68 22.78 7.68 22.68L7.68 18.32C7.68 18.22 7.72 18.13 7.78 18.06C7.85 17.99 7.92 17.96 8.02 17.96C8.11 17.96 8.19 17.99 8.26 18.06C8.32 18.13 8.35 18.22 8.35 18.32L8.35 18.42C8.69 18.11 9.08 17.96 9.53 17.96C10.04 17.96 10.47 18.15 10.83 18.54C10.91 18.62 10.98 18.71 11.04 18.8C11.1 18.71 11.17 18.63 11.24 18.54C11.6 18.15 12.04 17.96 12.55 17.96C13.06 17.96 13.49 18.15 13.85 18.54C14.21 18.93 14.39 19.4 14.39 19.95L14.39 22.68C14.39 22.78 14.36 22.86 14.29 22.94C14.23 23.01 14.15 23.04 14.05 23.04C13.96 23.04 13.88 23.01 13.82 22.94C13.75 22.87 13.72 22.78 13.72 22.68L13.72 19.95C13.72 19.6 13.6 19.3 13.38 19.05C13.15 18.81 12.87 18.68 12.54 18.68C12.22 18.68 11.94 18.81 11.71 19.05C11.49 19.3 11.37 19.6 11.37 19.95L11.37 22.68C11.37 22.78 11.34 22.86 11.27 22.93C11.21 23 11.13 23.04 11.04 23.04C10.94 23.04 10.86 23 10.8 22.93C10.73 22.86 10.7 22.78 10.7 22.68L10.7 19.95C10.7 19.6 10.58 19.3 10.36 19.05C10.13 18.81 9.85 18.68 9.53 18.68C9.2 18.68 8.93 18.81 8.7 19.05C8.47 19.3 8.35 19.6 8.35 19.95L8.35 22.68L8.35 22.68C8.35 22.78 8.32 22.86 8.26 22.93Z" stroke="#000000" stroke-opacity="1.000000" stroke-width="0.100000"/>
		<path id="XMLID_25_" d="M31.01 30.86C31.01 30.93 30.99 30.99 30.95 31.03C30.53 31.39 30.06 31.57 29.53 31.57C28.92 31.57 28.39 31.33 27.95 30.86C27.51 30.38 27.29 29.81 27.29 29.14C27.29 28.47 27.51 27.89 27.95 27.42C28.39 26.94 28.92 26.7 29.53 26.7C30.07 26.7 30.54 26.89 30.96 27.26C31.01 27.31 31.03 27.36 31.03 27.43C31.03 27.5 31.01 27.56 30.96 27.6C30.92 27.65 30.87 27.68 30.8 27.68C30.74 27.68 30.69 27.65 30.64 27.6C30.33 27.33 29.96 27.19 29.53 27.19C29.04 27.19 28.62 27.38 28.26 27.76C27.91 28.14 27.74 28.6 27.74 29.14C27.74 29.68 27.91 30.14 28.26 30.52C28.62 30.9 29.04 31.09 29.53 31.09C29.92 31.09 30.26 30.97 30.56 30.74L30.56 29.63L29.68 29.63C29.61 29.63 29.56 29.6 29.52 29.55C29.47 29.51 29.45 29.45 29.45 29.38C29.45 29.31 29.47 29.26 29.52 29.21C29.56 29.16 29.61 29.14 29.68 29.14L30.79 29.14C30.85 29.14 30.9 29.16 30.95 29.21C30.99 29.26 31.01 29.31 31.01 29.38L31.01 30.86Z" fill="#000000" fill-opacity="1.000000" fill-rule="nonzero"/>
		<path id="XMLID_25_" d="M30.95 31.03C30.53 31.39 30.06 31.57 29.53 31.57C28.92 31.57 28.39 31.33 27.95 30.86C27.51 30.38 27.29 29.81 27.29 29.14C27.29 28.47 27.51 27.89 27.95 27.42C28.39 26.94 28.92 26.7 29.53 26.7C30.07 26.7 30.54 26.89 30.96 27.26C31.01 27.31 31.03 27.36 31.03 27.43C31.03 27.5 31.01 27.56 30.96 27.6C30.92 27.65 30.87 27.68 30.8 27.68C30.74 27.68 30.69 27.65 30.64 27.6C30.33 27.33 29.96 27.19 29.53 27.19C29.04 27.19 28.62 27.38 28.26 27.76C27.91 28.14 27.74 28.6 27.74 29.14C27.74 29.68 27.91 30.14 28.26 30.52C28.62 30.9 29.04 31.09 29.53 31.09C29.92 31.09 30.26 30.97 30.56 30.74L30.56 29.63L29.68 29.63C29.61 29.63 29.56 29.6 29.52 29.55C29.47 29.51 29.45 29.45 29.45 29.38C29.45 29.31 29.47 29.26 29.52 29.21C29.56 29.16 29.61 29.14 29.68 29.14L30.79 29.14C30.85 29.14 30.9 29.16 30.95 29.21C30.99 29.26 31.01 29.31 31.01 29.38L31.01 30.86C31.01 30.93 30.99 30.99 30.95 31.03Z" stroke="#000000" stroke-opacity="1.000000" stroke-width="0.100000"/>
		<path id="XMLID_29_" d="M40.03 26.94C40.03 26.87 40.05 26.81 40.09 26.77C40.14 26.72 40.19 26.69 40.25 26.69C40.32 26.69 40.37 26.72 40.41 26.77C40.45 26.81 40.48 26.87 40.48 26.94L40.48 29.87C40.48 30.34 40.32 30.74 40.02 31.07C39.71 31.41 39.34 31.57 38.9 31.57C38.47 31.57 38.1 31.41 37.79 31.07C37.49 30.74 37.33 30.34 37.33 29.87C37.33 29.4 37.49 28.99 37.79 28.66C38.1 28.33 38.47 28.16 38.9 28.16C39.34 28.16 39.71 28.33 40.02 28.66C40.02 28.67 40.02 28.67 40.03 28.67L40.03 26.94L40.03 26.94ZM40.03 29.87C40.03 29.53 39.92 29.24 39.7 29.01C39.48 28.77 39.22 28.65 38.91 28.65C38.6 28.65 38.33 28.77 38.11 29.01C37.89 29.24 37.78 29.53 37.78 29.87C37.78 30.21 37.89 30.49 38.11 30.73C38.33 30.97 38.59 31.09 38.91 31.09C39.22 31.09 39.48 30.97 39.7 30.73C39.92 30.49 40.03 30.21 40.03 29.87Z" fill="#000000" fill-opacity="1.000000" fill-rule="nonzero"/>
		<path id="XMLID_29_" d="M40.09 26.77C40.14 26.72 40.19 26.69 40.25 26.69C40.32 26.69 40.37 26.72 40.41 26.77C40.45 26.81 40.48 26.87 40.48 26.94L40.48 29.87C40.48 30.34 40.32 30.74 40.02 31.07C39.71 31.41 39.34 31.57 38.9 31.57C38.47 31.57 38.1 31.41 37.79 31.07C37.49 30.74 37.33 30.34 37.33 29.87C37.33 29.4 37.49 28.99 37.79 28.66C38.1 28.33 38.47 28.16 38.9 28.16C39.34 28.16 39.71 28.33 40.02 28.66C40.02 28.67 40.02 28.67 40.03 28.67L40.03 26.94L40.03 26.94C40.03 26.87 40.05 26.81 40.09 26.77ZM39.7 29.01C39.48 28.77 39.22 28.65 38.91 28.65C38.6 28.65 38.33 28.77 38.11 29.01C37.89 29.24 37.78 29.53 37.78 29.87C37.78 30.21 37.89 30.49 38.11 30.73C38.33 30.97 38.59 31.09 38.91 31.09C39.22 31.09 39.48 30.97 39.7 30.73C39.92 30.49 40.03 30.21 40.03 29.87C40.03 29.53 39.92 29.24 39.7 29.01Z" stroke="#000000" stroke-opacity="1.000000" stroke-width="0.100000"/>
		<path id="XMLID_6_" d="M35.73 27.72L35.73 26.91C35.73 26.91 35.74 26.67 35.94 26.63C36.14 26.59 36.25 26.69 36.28 26.78C36.28 26.78 36.3 26.82 36.3 26.88C36.3 26.94 36.3 27.81 36.3 27.81L36.3 30.07C36.3 30.07 36.29 30.67 36.34 30.8C36.38 30.93 36.54 31.06 36.7 31.04C36.86 31.02 37.05 31.13 37.01 31.37C36.97 31.61 36.79 31.65 36.52 31.65C36.24 31.65 35.86 31.37 35.78 30.95C35.71 30.53 35.73 29.91 35.73 29.91L35.73 27.72Z" fill="#050606" fill-opacity="1.000000" fill-rule="nonzero"/>
		<path id="XMLID_7_" d="M32.08 30.62C32.08 30.62 32.61 30.9 32.88 30.96C33.14 31.03 33.66 31.03 33.89 30.99C34.13 30.95 34.52 30.76 34.61 30.71C34.71 30.66 34.81 30.59 34.81 30.59L34.81 31.07C34.81 31.07 34.74 31.32 34.5 31.46C34.2 31.62 33.83 31.74 33.45 31.73C33.07 31.72 32.73 31.64 32.51 31.51C32.29 31.39 32.11 31.23 32.08 31.09C32.05 30.96 32.08 30.62 32.08 30.62Z" fill="#050606" fill-opacity="1.000000" fill-rule="nonzero"/>
		<path id="XMLID_10_" d="M32.08 29.55C32.08 29.55 32.61 29.82 32.88 29.89C33.14 29.96 33.66 29.96 33.89 29.92C34.13 29.88 34.52 29.69 34.61 29.64C34.71 29.59 34.81 29.51 34.81 29.51L34.81 30C34.81 30 34.74 30.25 34.5 30.39C34.2 30.55 33.83 30.67 33.45 30.66C33.07 30.65 32.73 30.57 32.51 30.44C32.29 30.32 32.11 30.16 32.08 30.02C32.05 29.88 32.08 29.55 32.08 29.55Z" fill="#050606" fill-opacity="1.000000" fill-rule="nonzero"/>
		<path id="XMLID_9_" d="M34.81 28.84C34.81 29.23 34.2 29.55 33.44 29.55C32.68 29.55 32.07 29.23 32.07 28.84C32.07 28.45 32.68 28.13 33.44 28.13C34.2 28.13 34.81 28.45 34.81 28.84Z" fill="#050606" fill-opacity="1.000000" fill-rule="evenodd"/>
		<path id="XMLID_13_" d="M25.73 20.86C25.73 22.81 24.26 24.4 22.45 24.4C20.64 24.4 19.17 22.81 19.17 20.86C19.17 18.91 20.64 17.33 22.45 17.33C24.26 17.33 25.73 18.91 25.73 20.86Z" fill="#000000" fill-opacity="1.000000" fill-rule="evenodd"/>
		<path id="XMLID_15_" d="M25.3 20.88C25.3 22.56 24.03 23.92 22.48 23.92C20.92 23.92 19.66 22.56 19.66 20.88C19.66 19.2 20.92 17.84 22.48 17.84C24.03 17.84 25.3 19.2 25.3 20.88Z" fill="#FFFFFF" fill-opacity="1.000000" fill-rule="evenodd"/>
		<path id="XMLID_19_" d="M19.64 21.01C19.64 22.44 18.56 23.6 17.23 23.6C15.9 23.6 14.82 22.44 14.82 21.01C14.82 19.57 15.9 18.41 17.23 18.41C18.56 18.41 19.64 19.57 19.64 21.01Z" fill="#000000" fill-opacity="1.000000" fill-rule="evenodd"/>
		<path id="XMLID_16_" d="M19.25 21.03C19.25 22.21 18.36 23.17 17.26 23.17C16.17 23.17 15.28 22.21 15.28 21.03C15.28 19.84 16.17 18.89 17.26 18.89C18.36 18.89 19.25 19.84 19.25 21.03Z" fill="#FFFFFF" fill-opacity="1.000000" fill-rule="evenodd"/>
		<path id="XMLID_14_" d="M17.94 21.43C17.94 21.8 17.67 22.09 17.34 22.09C17 22.09 16.73 21.8 16.73 21.43C16.73 21.07 17 20.78 17.34 20.78C17.67 20.78 17.94 21.07 17.94 21.43Z" fill="#000000" fill-opacity="1.000000" fill-rule="evenodd"/>
		<path id="XMLID_18_" d="M22.67 21.81C22.67 22.32 22.29 22.73 21.82 22.73C21.35 22.73 20.97 22.32 20.97 21.81C20.97 21.3 21.35 20.88 21.82 20.88C22.29 20.88 22.67 21.3 22.67 21.81Z" fill="#000000" fill-opacity="1.000000" fill-rule="evenodd"/>
		<path id="XMLID_17_" d="M20.11 33.93C20.11 33.93 17.14 34.12 15.09 32.66C13.03 31.19 13.49 29.41 13.52 28.84C13.56 28.27 14.07 27.03 14.37 26.5C14.67 25.96 15.45 24.63 16.58 24.27C17.71 23.9 18.73 24.51 19.09 24.61C19.44 24.72 20.03 24.82 20.82 24.51C21.61 24.21 23.26 23.82 24.09 24.27C24.92 24.72 26.2 27.1 26.35 27.94C26.51 28.79 26.82 30.86 25.81 32.09C24.81 33.31 22.07 33.95 20.11 33.93Z" fill="#000000" fill-opacity="1.000000" fill-rule="nonzero"/>
		<path id="XMLID_20_" d="M14.31 27.81C14.31 27.81 14.72 26.81 15.28 25.96C15.84 25.11 16.54 24.73 16.81 24.66C17.08 24.59 17.48 24.56 17.94 24.7C18.17 24.77 18.88 25.09 19.16 25.18C19.45 25.27 20.33 25.22 20.81 25.02C21.29 24.83 22.65 24.48 23.18 24.48C23.71 24.48 24.1 24.75 24.55 25.42C25 26.1 26.02 27.61 26.02 28.84C26.02 30.07 25.96 31.4 25.29 31.93C24.63 32.47 23.63 32.93 22.17 33.19C20.72 33.45 18.91 33.49 17.76 33.19C16.61 32.9 15.23 32.66 14.48 31.36C13.73 30.07 13.93 28.6 14.31 27.81Z" fill="#FFFFFF" fill-opacity="1.000000" fill-rule="nonzero"/>
		<path id="XMLID_22_" d="M14.77 28.06C14.77 28.06 15.15 27.2 15.66 26.48C16.18 25.76 16.82 25.43 17.07 25.37C17.31 25.31 17.68 25.28 18.1 25.4C18.32 25.46 18.96 25.74 19.23 25.81C19.49 25.89 19.93 25.99 20.73 25.68C21.54 25.37 22.41 25.04 22.87 25.15C23.32 25.25 23.76 25.45 24.17 26.02C24.58 26.6 25.51 27.89 25.51 28.94C25.51 29.99 25.46 31.13 24.85 31.58C24.24 32.04 23.32 32.44 21.99 32.66C20.66 32.88 19 32.91 17.94 32.66C16.89 32.41 15.62 32.2 14.94 31.1C14.25 29.99 14.43 28.74 14.77 28.06Z" fill="#ECB7B7" fill-opacity="1.000000" fill-rule="nonzero"/>
		<path id="XMLID_26_" d="M21.22 32.75C21.22 32.75 18.93 32.91 17.88 32.67C16.83 32.42 15.55 32.22 14.87 31.13C14.18 30.05 14.33 29.04 14.6 28.14C14.6 28.14 14.97 27.31 15.48 26.6C15.99 25.89 16.41 25.66 16.64 25.55C16.92 25.42 17.19 25.26 17.62 25.38C17.62 25.38 16.36 27.14 16.55 29.21C16.74 31.27 17.94 31.76 18.65 32.12C19.37 32.47 21.22 32.75 21.22 32.75Z" fill="#E1AEAD" fill-opacity="1.000000" fill-rule="nonzero"/>
		<path id="XMLID_28_" d="M23.34 26.17C23.34 26.17 22.44 26.49 22.24 27.19C22.04 27.93 22.35 28.57 22.67 28.77C22.99 28.98 23.64 28.83 23.8 28.77C23.96 28.72 24.52 28.32 24.52 28.32C24.52 28.32 22.24 27.82 23.34 26.17Z" fill="#000000" fill-opacity="1.000000" fill-rule="nonzero"/>
		<path id="XMLID_31_" d="M17.11 28.29C17.11 28.29 16.19 28.18 16.47 28.88C16.6 29.2 17.94 29.21 18.16 28.84C18.48 28.33 18.63 27.9 18.07 27.04C17.69 26.46 16.71 26.22 17.08 26.46C17.94 27.03 18.32 28.22 17.11 28.29Z" fill="#000000" fill-opacity="1.000000" fill-rule="nonzero"/>
		<path id="XMLID_21_" d="M39.48 29.89C39.48 30.24 39.22 30.53 38.91 30.53C38.6 30.53 38.35 30.24 38.35 29.89C38.35 29.53 38.6 29.25 38.91 29.25C39.22 29.25 39.48 29.53 39.48 29.89Z" fill="#F9D293" fill-opacity="1.000000" fill-rule="evenodd"/>
	</g>
</svg>
