<svg xmlns="http://www.w3.org/2000/svg" width="120" height="39" viewBox="0 0 120 39" fill="none">
    <mask id="mask0_54_73" style="mask-type:luminance" maskUnits="userSpaceOnUse" x="0" y="0" width="120" height="39">
        <path d="M120 0H0V38.2979H120V0Z" fill="white"/>
    </mask>
    <g mask="url(#mask0_54_73)">
        <path d="M37.3131 19.1489L19.1489 0.984751L11.5663 8.56739C11.448 8.41502 11.359 8.23864 11.3072 8.04631L11.2638 7.88514L19.1489 0L38.2979 19.1489L30.6977 26.7491L29.9217 26.5403L37.3131 19.1489Z" fill="url(#paint0_linear_54_73)"/>
        <path d="M26.5403 29.9217L19.1489 37.3131L0.984751 19.1489L8.56741 11.5663C8.41505 11.448 8.23866 11.359 8.04633 11.3072L7.88516 11.2638L0 19.1489L19.1489 38.2979L26.7492 30.6977L26.5403 29.9217Z" fill="url(#paint1_linear_54_73)"/>
        <path d="M18.061 7.22616C18.2922 6.36735 19.5107 6.36735 19.7419 7.22616L21.5192 13.8271C21.8419 15.0253 22.7778 15.9611 23.976 16.2837L30.5769 18.061C31.4357 18.2922 31.4357 19.5107 30.5769 19.7419L23.976 21.5192C22.7778 21.8419 21.8419 22.7778 21.5192 23.976L19.7419 30.5769C19.5107 31.4357 18.2922 31.4357 18.061 30.5769L16.2838 23.976C15.9612 22.7778 15.0253 21.8419 13.8271 21.5192L7.22617 19.7419C6.36736 19.5107 6.36736 18.2922 7.22617 18.061L13.8271 16.2837C15.0253 15.9611 15.9612 15.0253 16.2838 13.8271L18.061 7.22616Z" fill="url(#paint2_linear_54_73)"/>
        <path d="M9.90054 6.07297C9.98223 5.76958 10.4127 5.76958 10.4944 6.07297L11.1222 8.40482C11.2362 8.8281 11.5668 9.15873 11.9901 9.27269L14.322 9.90054C14.6253 9.98223 14.6253 10.4127 14.322 10.4944L11.9901 11.1222C11.5668 11.2362 11.2362 11.5668 11.1222 11.9901L10.4944 14.322C10.4127 14.6253 9.98223 14.6253 9.90054 14.322L9.27269 11.9901C9.15873 11.5668 8.8281 11.2362 8.40482 11.1222L6.07297 10.4944C5.76958 10.4127 5.76958 9.98223 6.07297 9.90054L8.40482 9.27269C8.8281 9.15873 9.15873 8.8281 9.27269 8.40482L9.90054 6.07297Z" fill="url(#paint3_linear_54_73)"/>
        <path d="M27.3087 23.4811C27.3904 23.1777 27.8207 23.1777 27.9024 23.4811L28.5303 25.8129C28.6443 26.2362 28.9749 26.5668 29.3982 26.6808L31.73 27.3087C32.0335 27.3904 32.0335 27.8207 31.73 27.9024L29.3982 28.5303C28.9749 28.6443 28.6443 28.9749 28.5303 29.3982L27.9024 31.73C27.8207 32.0335 27.3904 32.0335 27.3087 31.73L26.6808 29.3982C26.5668 28.9749 26.2362 28.6443 25.8129 28.5303L23.4811 27.9024C23.1777 27.8207 23.1777 27.3904 23.4811 27.3087L25.8129 26.6808C26.2362 26.5668 26.5668 26.2362 26.6808 25.8129L27.3087 23.4811Z" fill="url(#paint4_linear_54_73)"/>
        <path d="M50.8506 15.0689H54.7506V16.5957H48.9587V5.0617H50.8506V15.0689Z" fill="black"/>
        <path d="M58.2248 6.58851V9.97404H62.2077V11.5174H58.2248V15.0523H62.7056V16.5957H56.3329V5.0451H62.7056V6.58851H58.2248Z" fill="black"/>
        <path d="M73.3834 8.38083C73.0847 7.80552 72.67 7.37403 72.1389 7.08636C71.6078 6.78764 70.9938 6.63828 70.2968 6.63828C69.5334 6.63828 68.8529 6.80978 68.2555 7.15275C67.6579 7.49573 67.1877 7.98254 66.8448 8.61317C66.5129 9.24381 66.347 9.97402 66.347 10.8038C66.347 11.6336 66.5129 12.3694 66.8448 13.0111C67.1877 13.6417 67.6579 14.1285 68.2555 14.4715C68.8529 14.8145 69.5334 14.986 70.2968 14.986C71.3257 14.986 72.161 14.6983 72.8027 14.123C73.4443 13.5476 73.8371 12.7676 73.9809 11.783H69.6495V10.2727H76.0057V11.7498C75.8839 12.6459 75.5631 13.4702 75.0431 14.2225C74.5342 14.9748 73.8648 15.5779 73.0351 16.0315C72.2163 16.4741 71.3035 16.6953 70.2968 16.6953C69.2124 16.6953 68.2223 16.4464 67.3261 15.9485C66.43 15.4395 65.7163 14.737 65.1853 13.8408C64.6652 12.9447 64.4053 11.9323 64.4053 10.8038C64.4053 9.6753 64.6652 8.66296 65.1853 7.76679C65.7163 6.87062 66.43 6.1736 67.3261 5.67573C68.2333 5.1668 69.2235 4.91232 70.2968 4.91232C71.5248 4.91232 72.6145 5.21659 73.5661 5.82509C74.5287 6.42254 75.2256 7.27446 75.6571 8.38083H73.3834Z" fill="black"/>
        <path d="M84.8252 14.2391H79.9958L79.1661 16.5957H77.1912L81.3235 5.0451H83.5141L87.6465 16.5957H85.655L84.8252 14.2391ZM84.2941 12.6957L82.4188 7.33532L80.5269 12.6957H84.2941Z" fill="black"/>
        <path d="M49.7221 34.5842C49.3791 34.5842 49.0915 34.4681 48.8591 34.2357C48.6268 34.0034 48.5106 33.7158 48.5106 33.3728C48.5106 33.0297 48.6268 32.7421 48.8591 32.5098C49.0915 32.2774 49.3791 32.1613 49.7221 32.1613C50.054 32.1613 50.3362 32.2774 50.5685 32.5098C50.8008 32.7421 50.917 33.0297 50.917 33.3728C50.917 33.7158 50.8008 34.0034 50.5685 34.2357C50.3362 34.4681 50.054 34.5842 49.7221 34.5842Z" fill="black"/>
        <path d="M65.1099 22.934V34.4681H63.2179V26.5685L59.6996 34.4681H58.3886L54.8537 26.5685V34.4681H52.9618V22.934H55.003L59.0524 31.9787L63.0852 22.934H65.1099Z" fill="black"/>
        <path d="M74.5501 32.1115H69.7208L68.891 34.4681H66.9161L71.0484 22.9174H73.2391L77.3714 34.4681H75.3799L74.5501 32.1115ZM74.0191 30.5681L72.1437 25.2077L70.2518 30.5681H74.0191Z" fill="black"/>
        <path d="M85.1593 34.4681L82.504 29.8545H81.0601V34.4681H79.1682V22.934H83.1512C84.0363 22.934 84.7831 23.0889 85.3916 23.3987C86.0111 23.7085 86.4703 24.1234 86.7691 24.6434C87.0788 25.1634 87.2337 25.7442 87.2337 26.386C87.2337 27.1382 87.0124 27.8243 86.5699 28.4438C86.1384 29.0524 85.469 29.4673 84.5618 29.6885L87.4163 34.4681H85.1593ZM81.0601 28.3442H83.1512C83.8592 28.3442 84.3903 28.1672 84.7444 27.8132C85.1095 27.4592 85.292 26.9834 85.292 26.386C85.292 25.7885 85.115 25.3238 84.761 24.9919C84.4069 24.6489 83.8703 24.4774 83.1512 24.4774H81.0601V28.3442Z" fill="black"/>
        <path d="M96.0101 34.4681L91.5458 29.3068V34.4681H89.6539V22.934H91.5458V28.1949L96.0267 22.934H98.3999L93.3879 28.7094L98.4828 34.4681H96.0101Z" fill="black"/>
        <path d="M102.048 24.4608V27.8464H108.924V29.3898H102.048V32.9247H109.422V34.4681H100.156V22.9174H109.422V24.4608H102.048Z" fill="black"/>
        <path d="M119.203 22.934V24.4774H116.133V34.4681H114.241V24.4774H111.154V22.934H119.203Z" fill="black"/>
    </g>
    <defs>
        <linearGradient id="paint0_linear_54_73" x1="3.19148" y1="-3.88726e-07" x2="33.1915" y2="38.2979" gradientUnits="userSpaceOnUse">
            <stop stop-color="#EDBDD7"/>
            <stop offset="1" stop-color="#4A97FA"/>
        </linearGradient>
        <linearGradient id="paint1_linear_54_73" x1="3.19149" y1="1.81632e-05" x2="33.1915" y2="38.2979" gradientUnits="userSpaceOnUse">
            <stop stop-color="#EDBDD7"/>
            <stop offset="1" stop-color="#4A97FA"/>
        </linearGradient>
        <linearGradient id="paint2_linear_54_73" x1="3.19148" y1="-9.37111e-06" x2="33.1915" y2="38.2979" gradientUnits="userSpaceOnUse">
            <stop stop-color="#EDBDD7"/>
            <stop offset="1" stop-color="#4A97FA"/>
        </linearGradient>
        <linearGradient id="paint3_linear_54_73" x1="3.19149" y1="-1.08157e-05" x2="33.1915" y2="38.2979" gradientUnits="userSpaceOnUse">
            <stop stop-color="#EDBDD7"/>
            <stop offset="1" stop-color="#4A97FA"/>
        </linearGradient>
        <linearGradient id="paint4_linear_54_73" x1="3.19149" y1="-1.25361e-06" x2="33.1915" y2="38.2979" gradientUnits="userSpaceOnUse">
            <stop stop-color="#EDBDD7"/>
            <stop offset="1" stop-color="#4A97FA"/>
        </linearGradient>
    </defs>
</svg>