<svg width="162" height="52" viewBox="0 0 162 52" fill="none" xmlns="http://www.w3.org/2000/svg">
    <g clip-path="url(#clip0_206_6543)">
        <mask id="mask0_206_6543" style="mask-type:luminance" maskUnits="userSpaceOnUse" x="0" y="0" width="162" height="52">
            <path d="M161.5 0H0.5V51.8617H161.5V0Z" fill="white"/>
        </mask>
        <g mask="url(#mask0_206_6543)">
            <path d="M50.5618 25.9309L26.1915 1.33352L16.0182 11.6017C15.8595 11.3953 15.74 11.1565 15.6705 10.896L15.6123 10.6778L26.1915 0L51.883 25.9309L41.6861 36.2228L40.6451 35.94L50.5618 25.9309Z" fill="url(#paint0_linear_206_6543)"/>
            <path d="M36.1082 40.519L26.1915 50.5282L1.82121 25.9309L11.9946 15.6627C11.7902 15.5025 11.5535 15.3819 11.2955 15.3118L11.0793 15.2531L0.5 25.9309L26.1915 51.8617L36.3884 41.5697L36.1082 40.519Z" fill="url(#paint1_linear_206_6543)"/>
            <path d="M24.732 9.78542C25.0422 8.62246 26.677 8.62246 26.9872 9.78542L29.3717 18.7241C29.8047 20.3467 31.0603 21.6141 32.6679 22.0509L41.5241 24.4576C42.6763 24.7707 42.6763 26.4208 41.5241 26.7338L32.6679 29.1406C31.0603 29.5776 29.8047 30.8449 29.3717 32.4675L26.9872 41.4062C26.677 42.5691 25.0422 42.5691 24.732 41.4062L22.3475 32.4675C21.9147 30.8449 20.659 29.5776 19.0514 29.1406L10.1952 26.7338C9.043 26.4208 9.043 24.7707 10.1952 24.4576L19.0514 22.0509C20.659 21.6141 21.9147 20.3467 22.3475 18.7241L24.732 9.78542Z" fill="url(#paint2_linear_206_6543)"/>
            <path d="M13.7834 8.22381C13.893 7.81298 14.4705 7.81298 14.5801 8.22381L15.4225 11.3815C15.5754 11.9547 16.019 12.4024 16.5868 12.5568L19.7155 13.407C20.1225 13.5176 20.1225 14.1005 19.7155 14.2111L16.5868 15.0613C16.019 15.2157 15.5754 15.6634 15.4225 16.2366L14.5801 19.3944C14.4705 19.8051 13.893 19.8051 13.7834 19.3944L12.941 16.2366C12.7881 15.6634 12.3445 15.2157 11.7766 15.0613L8.64805 14.2111C8.24101 14.1005 8.24101 13.5176 8.64805 13.407L11.7766 12.5568C12.3445 12.4024 12.7881 11.9547 12.941 11.3815L13.7834 8.22381Z" fill="url(#paint3_linear_206_6543)"/>
            <path d="M37.1388 31.7973C37.2485 31.3865 37.8258 31.3865 37.9355 31.7973L38.7778 34.955C38.9307 35.5282 39.3743 35.9759 39.9423 36.1303L43.0708 36.9805C43.478 37.0911 43.478 37.6739 43.0708 37.7845L39.9423 38.6347C39.3743 38.7891 38.9307 39.2368 38.7778 39.8101L37.9355 42.9678C37.8258 43.3787 37.2485 43.3787 37.1388 42.9678L36.2965 39.8101C36.1436 39.2368 35.7 38.7891 35.132 38.6347L32.0035 37.7845C31.5965 37.6739 31.5965 37.0911 32.0035 36.9805L35.132 36.1303C35.7 35.9759 36.1436 35.5282 36.2965 34.955L37.1388 31.7973Z" fill="url(#paint4_linear_206_6543)"/>
            <path d="M68.7248 20.4059H73.9573V22.4734H66.1865V6.85439H68.7248V20.4059Z" fill="#1D1D1D"/>
            <path d="M78.6184 8.92194V13.5065H83.9622V15.5965H78.6184V20.3834H84.6302V22.4734H76.0801V6.83192H84.6302V8.92194H78.6184Z" fill="#1D1D1D"/>
            <path d="M98.9559 11.349C98.5551 10.57 97.9986 9.98567 97.2861 9.59612C96.5736 9.1916 95.7497 8.98934 94.8146 8.98934C93.7903 8.98934 92.8774 9.22158 92.0759 9.68602C91.2741 10.1505 90.6433 10.8097 90.1833 11.6637C89.7379 12.5177 89.5153 13.5065 89.5153 14.6302C89.5153 15.7538 89.7379 16.7502 90.1833 17.6191C90.6433 18.4731 91.2741 19.1323 92.0759 19.5968C92.8774 20.0613 93.7903 20.2935 94.8146 20.2935C96.1951 20.2935 97.3157 19.904 98.1767 19.1249C99.0376 18.3457 99.5646 17.2895 99.7574 15.9561H93.9462V13.911H102.474V15.9111C102.311 17.1247 101.88 18.241 101.183 19.2597C100.5 20.2784 99.6018 21.0951 98.4885 21.7093C97.3899 22.3087 96.1653 22.6082 94.8146 22.6082C93.3597 22.6082 92.0313 22.2711 90.829 21.5969C89.6266 20.9077 88.6692 19.9564 87.9567 18.7428C87.2589 17.5293 86.9102 16.1584 86.9102 14.6302C86.9102 13.102 87.2589 11.7311 87.9567 10.5175C88.6692 9.30397 89.6266 8.36009 90.829 7.68588C92.0461 6.99671 93.3746 6.65211 94.8146 6.65211C96.4622 6.65211 97.9243 7.06413 99.201 7.88814C100.492 8.69719 101.427 9.85083 102.006 11.349H98.9559Z" fill="#1D1D1D"/>
            <path d="M114.307 19.2822H107.827L106.714 22.4734H104.064L109.609 6.83192H112.548L118.092 22.4734H115.42L114.307 19.2822ZM113.594 17.1922L111.078 9.93325L108.54 17.1922H113.594Z" fill="#1D1D1D"/>
            <path d="M67.2104 46.8328C66.7502 46.8328 66.3643 46.6755 66.0525 46.3609C65.7408 46.0463 65.585 45.6568 65.585 45.1923C65.585 44.7278 65.7408 44.3383 66.0525 44.0237C66.3643 43.709 66.7502 43.5517 67.2104 43.5517C67.6557 43.5517 68.0342 43.709 68.3459 44.0237C68.6577 44.3383 68.8135 44.7278 68.8135 45.1923C68.8135 45.6568 68.6577 46.0463 68.3459 46.3609C68.0342 46.6755 67.6557 46.8328 67.2104 46.8328Z" fill="#1D1D1D"/>
            <path d="M87.8553 31.0565V46.6755H85.317V35.9782L80.5966 46.6755H78.8376L74.095 35.9782V46.6755H71.5566V31.0565H74.2954L79.7283 43.3045L85.1389 31.0565H87.8553Z" fill="#1D1D1D"/>
            <path d="M100.522 43.4843H94.0422L92.9289 46.6755H90.2793L95.8235 31.034H98.7626L104.307 46.6755H101.635L100.522 43.4843ZM99.8091 41.3943L97.2931 34.1354L94.7548 41.3943H99.8091Z" fill="#1D1D1D"/>
            <path d="M114.756 46.6755L111.193 40.4279H109.256V46.6755H106.718V31.0565H112.062C113.249 31.0565 114.251 31.2662 115.068 31.6858C115.899 32.1053 116.515 32.6672 116.916 33.3713C117.331 34.0754 117.539 34.862 117.539 35.731C117.539 36.7497 117.242 37.6787 116.648 38.5177C116.069 39.3418 115.171 39.9036 113.954 40.2032L117.784 46.6755H114.756ZM109.256 38.3828H112.062C113.012 38.3828 113.724 38.1431 114.199 37.6637C114.689 37.1843 114.934 36.54 114.934 35.731C114.934 34.9219 114.696 34.2927 114.221 33.8432C113.746 33.3787 113.026 33.1465 112.062 33.1465H109.256V38.3828Z" fill="#1D1D1D"/>
            <path d="M129.314 46.6755L123.324 39.6863V46.6755H120.786V31.0565H123.324V38.1806L129.336 31.0565H132.52L125.796 38.8773L132.632 46.6755H129.314Z" fill="#1D1D1D"/>
            <path d="M137.414 33.1241V37.7086H146.639V39.7987H137.414V44.5855H147.307V46.6755H134.876V31.034H147.307V33.1241H137.414Z" fill="#1D1D1D"/>
            <path d="M160.431 31.0565V33.1465H156.312V46.6755H153.773V33.1465H149.632V31.0565H160.431Z" fill="#1D1D1D"/>
        </g>
    </g>
    <defs>
        <linearGradient id="paint0_linear_206_6543" x1="4.78196" y1="-5.264e-07" x2="45.4956" y2="51.4951" gradientUnits="userSpaceOnUse">
            <stop stop-color="#EDBDD7"/>
            <stop offset="1" stop-color="#4A97FA"/>
        </linearGradient>
        <linearGradient id="paint1_linear_206_6543" x1="4.78192" y1="2.99174e-05" x2="45.4956" y2="51.4951" gradientUnits="userSpaceOnUse">
            <stop stop-color="#EDBDD7"/>
            <stop offset="1" stop-color="#4A97FA"/>
        </linearGradient>
        <linearGradient id="paint2_linear_206_6543" x1="4.78203" y1="-1.13244e-05" x2="45.4957" y2="51.4951" gradientUnits="userSpaceOnUse">
            <stop stop-color="#EDBDD7"/>
            <stop offset="1" stop-color="#4A97FA"/>
        </linearGradient>
        <linearGradient id="paint3_linear_206_6543" x1="4.78207" y1="-1.33888e-05" x2="45.4957" y2="51.4951" gradientUnits="userSpaceOnUse">
            <stop stop-color="#EDBDD7"/>
            <stop offset="1" stop-color="#4A97FA"/>
        </linearGradient>
        <linearGradient id="paint4_linear_206_6543" x1="4.78161" y1="-1.10431e-05" x2="45.4953" y2="51.4951" gradientUnits="userSpaceOnUse">
            <stop stop-color="#EDBDD7"/>
            <stop offset="1" stop-color="#4A97FA"/>
        </linearGradient>
        <clipPath id="clip0_206_6543">
            <rect width="161" height="52" fill="white" transform="translate(0.5)"/>
        </clipPath>
    </defs>
</svg>