<svg width="161" height="52" viewBox="0 0 161 52" fill="none" xmlns="http://www.w3.org/2000/svg">
    <g clip-path="url(#clip0_136_4245)">
        <mask id="mask0_136_4245" style="mask-type:luminance" maskUnits="userSpaceOnUse" x="0" y="0" width="161" height="52">
            <path d="M161 0H0V51.8617H161V0Z" fill="white"/>
        </mask>
        <g mask="url(#mask0_136_4245)">
            <path d="M50.0617 25.9309L25.6915 1.33352L15.5181 11.6017C15.3594 11.3953 15.2399 11.1565 15.1705 10.896L15.1122 10.6778L25.6915 0L51.383 25.9309L41.186 36.2228L40.145 35.94L50.0617 25.9309Z" fill="url(#paint0_linear_136_4245)"/>
            <path d="M35.6082 40.519L25.6915 50.5282L1.32121 25.9309L11.4946 15.6627C11.2902 15.5025 11.0535 15.3819 10.7955 15.3118L10.5793 15.253L0 25.9309L25.6915 51.8617L35.8884 41.5697L35.6082 40.519Z" fill="url(#paint1_linear_136_4245)"/>
            <path d="M24.2319 9.78542C24.5421 8.62246 26.1769 8.62246 26.4871 9.78542L28.8716 18.7241C29.3046 20.3467 30.5602 21.6141 32.1678 22.0509L41.024 24.4576C42.1762 24.7707 42.1762 26.4208 41.024 26.7338L32.1678 29.1406C30.5602 29.5776 29.3046 30.8449 28.8716 32.4675L26.4871 41.4062C26.1769 42.5691 24.5421 42.5691 24.2319 41.4062L21.8474 32.4675C21.4145 30.8449 20.1589 29.5776 18.5513 29.1406L9.69509 26.7338C8.54286 26.4208 8.54286 24.7707 9.69509 24.4576L18.5513 22.0509C20.1589 21.6141 21.4145 20.3467 21.8474 18.7241L24.2319 9.78542Z" fill="url(#paint2_linear_136_4245)"/>
            <path d="M13.2832 8.22381C13.3928 7.81298 13.9703 7.81298 14.0799 8.22381L14.9223 11.3815C15.0752 11.9547 15.5188 12.4024 16.0867 12.5568L19.2154 13.407C19.6223 13.5176 19.6223 14.1005 19.2154 14.2111L16.0867 15.0613C15.5188 15.2157 15.0752 15.6634 14.9223 16.2366L14.0799 19.3944C13.9703 19.8051 13.3928 19.8051 13.2832 19.3944L12.4409 16.2366C12.288 15.6634 11.8444 15.2157 11.2765 15.0613L8.1479 14.2111C7.74086 14.1005 7.74086 13.5176 8.1479 13.407L11.2765 12.5568C11.8444 12.4024 12.288 11.9547 12.4409 11.3815L13.2832 8.22381Z" fill="url(#paint3_linear_136_4245)"/>
            <path d="M36.6391 31.7973C36.7488 31.3865 37.3261 31.3865 37.4358 31.7973L38.2781 34.955C38.431 35.5282 38.8747 35.9759 39.4426 36.1303L42.5711 36.9805C42.9783 37.0911 42.9783 37.6739 42.5711 37.7845L39.4426 38.6347C38.8747 38.7891 38.431 39.2368 38.2781 39.8101L37.4358 42.9678C37.3261 43.3787 36.7488 43.3787 36.6391 42.9678L35.7968 39.8101C35.6439 39.2368 35.2003 38.7891 34.6323 38.6347L31.5038 37.7845C31.0968 37.6739 31.0968 37.0911 31.5038 36.9805L34.6323 36.1303C35.2003 35.9759 35.6439 35.5282 35.7968 34.955L36.6391 31.7973Z" fill="url(#paint4_linear_136_4245)"/>
            <path d="M68.2246 20.4059H73.4571V22.4734H65.6863V6.85439H68.2246V20.4059Z" fill="white"/>
            <path d="M78.1182 8.92194V13.5065H83.4621V15.5965H78.1182V20.3834H84.13V22.4734H75.5799V6.83191H84.13V8.92194H78.1182Z" fill="white"/>
            <path d="M98.4561 11.3491C98.0554 10.57 97.4989 9.98568 96.7864 9.59613C96.0739 9.1916 95.25 8.98934 94.3148 8.98934C93.2906 8.98934 92.3777 9.22158 91.5761 9.68602C90.7744 10.1505 90.1436 10.8097 89.6835 11.6637C89.2382 12.5177 89.0155 13.5065 89.0155 14.6302C89.0155 15.7538 89.2382 16.7502 89.6835 17.6191C90.1436 18.4731 90.7744 19.1323 91.5761 19.5968C92.3777 20.0613 93.2906 20.2935 94.3148 20.2935C95.6953 20.2935 96.816 19.904 97.677 19.1249C98.5378 18.3457 99.0649 17.2895 99.2577 15.9561H93.4465V13.911H101.974V15.9112C101.811 17.1247 101.381 18.241 100.683 19.2597C100 20.2784 99.102 21.0951 97.9887 21.7093C96.8902 22.3087 95.6655 22.6082 94.3148 22.6082C92.86 22.6082 91.5316 22.2711 90.3292 21.5969C89.1269 20.9077 88.1694 19.9564 87.4569 18.7428C86.7591 17.5293 86.4104 16.1584 86.4104 14.6302C86.4104 13.102 86.7591 11.7311 87.4569 10.5175C88.1694 9.30397 89.1269 8.36009 90.3292 7.68589C91.5463 6.99671 92.8749 6.65211 94.3148 6.65211C95.9625 6.65211 97.4245 7.06413 98.7012 7.88815C99.9927 8.69719 100.928 9.85084 101.507 11.3491H98.4561Z" fill="white"/>
            <path d="M113.807 19.2822H107.328L106.214 22.4734H103.565L109.109 6.83191H112.048L117.592 22.4734H114.92L113.807 19.2822ZM113.095 17.1922L110.579 9.93324L108.04 17.1922H113.095Z" fill="white"/>
            <path d="M66.7105 46.8328C66.2503 46.8328 65.8644 46.6755 65.5527 46.3609C65.241 46.0463 65.0851 45.6568 65.0851 45.1923C65.0851 44.7278 65.241 44.3383 65.5527 44.0237C65.8644 43.709 66.2503 43.5517 66.7105 43.5517C67.1558 43.5517 67.5344 43.709 67.8461 44.0237C68.1578 44.3383 68.3137 44.7278 68.3137 45.1923C68.3137 45.6568 68.1578 46.0463 67.8461 46.3609C67.5344 46.6755 67.1558 46.8328 66.7105 46.8328Z" fill="white"/>
            <path d="M87.3557 31.0565V46.6755H84.8174V35.9782L80.097 46.6755H78.338L73.5953 35.9782V46.6755H71.057V31.0565H73.7957L79.2286 43.3045L84.6393 31.0565H87.3557Z" fill="white"/>
            <path d="M100.021 43.4843H93.542L92.4287 46.6755H89.7791L95.3233 31.034H98.2624L103.807 46.6755H101.135L100.021 43.4843ZM99.3089 41.3943L96.7929 34.1354L94.2545 41.3943H99.3089Z" fill="white"/>
            <path d="M114.255 46.6755L110.693 40.4279H108.756V46.6755H106.217V31.0565H111.561C112.749 31.0565 113.751 31.2662 114.567 31.6858C115.398 32.1053 116.014 32.6672 116.415 33.3713C116.831 34.0754 117.039 34.862 117.039 35.731C117.039 36.7497 116.742 37.6787 116.148 38.5177C115.569 39.3418 114.671 39.9036 113.454 40.2032L117.284 46.6755H114.255ZM108.756 38.3828H111.561C112.511 38.3828 113.224 38.1431 113.699 37.6637C114.189 37.1843 114.433 36.54 114.433 35.731C114.433 34.9219 114.196 34.2927 113.721 33.8432C113.246 33.3787 112.526 33.1465 111.561 33.1465H108.756V38.3828Z" fill="white"/>
            <path d="M128.814 46.6755L122.824 39.6863V46.6755H120.286V31.0565H122.824V38.1806L128.836 31.0565H132.02L125.295 38.8773L132.131 46.6755H128.814Z" fill="white"/>
            <path d="M136.914 33.1241V37.7086H146.139V39.7987H136.914V44.5855H146.807V46.6755H134.376V31.034H146.807V33.1241H136.914Z" fill="white"/>
            <path d="M159.931 31.0565V33.1465H155.812V46.6755H153.274V33.1465H149.132V31.0565H159.931Z" fill="white"/>
        </g>
    </g>
    <defs>
        <linearGradient id="paint0_linear_136_4245" x1="4.2819" y1="-5.264e-07" x2="44.9956" y2="51.4951" gradientUnits="userSpaceOnUse">
            <stop stop-color="#EDBDD7"/>
            <stop offset="1" stop-color="#4A97FA"/>
        </linearGradient>
        <linearGradient id="paint1_linear_136_4245" x1="4.28192" y1="2.41954e-05" x2="44.9956" y2="51.4951" gradientUnits="userSpaceOnUse">
            <stop stop-color="#EDBDD7"/>
            <stop offset="1" stop-color="#4A97FA"/>
        </linearGradient>
        <linearGradient id="paint2_linear_136_4245" x1="4.2819" y1="-1.32317e-05" x2="44.9956" y2="51.4951" gradientUnits="userSpaceOnUse">
            <stop stop-color="#EDBDD7"/>
            <stop offset="1" stop-color="#4A97FA"/>
        </linearGradient>
        <linearGradient id="paint3_linear_136_4245" x1="4.28192" y1="-1.14814e-05" x2="44.9956" y2="51.4951" gradientUnits="userSpaceOnUse">
            <stop stop-color="#EDBDD7"/>
            <stop offset="1" stop-color="#4A97FA"/>
        </linearGradient>
        <linearGradient id="paint4_linear_136_4245" x1="4.28192" y1="-3.41371e-06" x2="44.9956" y2="51.4951" gradientUnits="userSpaceOnUse">
            <stop stop-color="#EDBDD7"/>
            <stop offset="1" stop-color="#4A97FA"/>
        </linearGradient>
        <clipPath id="clip0_136_4245">
            <rect width="161" height="52" fill="white"/>
        </clipPath>
    </defs>
</svg>